<svg id="Icon" xmlns="http://www.w3.org/2000/svg" viewBox="0 0 24 24"><defs><style>.cls-1{fill:none;}</style></defs><title>bathtub</title><rect class="cls-1" width="24" height="24"/><rect x="14" y="7.5" width="2" height="4" rx="1" ry="1"/><rect x="8" y="7.5" width="2" height="4" rx="1" ry="1"/><rect x="11" y="7.5" width="2" height="4" rx="1" ry="1"/><path d="M6,13V4h5V5H8V7h8V5H13V4a1.99311,1.99311,0,0,0-2-2H6A1.99311,1.99311,0,0,0,4,4v9H2v2H4a4.99614,4.99614,0,0,0,2.49,4.31L5.38,22h2l.85-2.07A3.94078,3.94078,0,0,0,9,20h6a3.94078,3.94078,0,0,0,.77-.07L16.62,22h2l-1.11-2.69A4.99614,4.99614,0,0,0,20,15h2V13Zm9,5H9a3.00879,3.00879,0,0,1-3-3H18A3.00879,3.00879,0,0,1,15,18Z"/></svg>