<svg id="Laag_1" data-name="Laag 1" xmlns="http://www.w3.org/2000/svg" viewBox="0 0 24 24"><defs><style>.cls-1{fill:none;}</style></defs><title>shower</title><rect class="cls-1" width="24" height="24"/><rect x="16" y="7.5" width="2" height="4" rx="1" ry="1"/><rect x="19" y="7.5" width="2" height="4" rx="1" ry="1"/><rect x="10" y="7.5" width="2" height="4" rx="1" ry="1"/><rect x="13" y="7.5" width="2" height="4" rx="1" ry="1"/><path d="M21,5V7H10V5h4.5V4H5V15H6V14H8v4H6V17H5v5H3V4A2.00587,2.00587,0,0,1,5,2h9.5a2.00587,2.00587,0,0,1,2,2V5Z"/></svg>