<svg id="Laag_1" data-name="Laag 1" xmlns="http://www.w3.org/2000/svg" viewBox="0 0 24 24"><defs><style>.cls-1{fill:none;}</style></defs><title>toilet</title><rect class="cls-1" width="24" height="24"/><rect x="3.5" y="9" width="12" height="1.5"/><path d="M20,2H18a2.00587,2.00587,0,0,0-2,2v7H4a2.00587,2.00587,0,0,0-2,2c0,1.65,1.81,3,4,3h7v4a2.00591,2.00591,0,0,0,2,2h5a2.00591,2.00591,0,0,0,2-2V4A2.00587,2.00587,0,0,0,20,2Zm0,2V6H18V4ZM15,20V16a2.00587,2.00587,0,0,0-2-2H6c-1.1,0-2-.45-2-1H16a2.00591,2.00591,0,0,0,2-2V8h2V20Z"/></svg>